<?xml version="1.0" encoding="UTF-8" standalone="no"?>
<!-- Created with Inkscape (http://www.inkscape.org/) -->

<svg
   xmlns:dc="http://purl.org/dc/elements/1.1/"
   xmlns:cc="http://creativecommons.org/ns#"
   xmlns:rdf="http://www.w3.org/1999/02/22-rdf-syntax-ns#"
   xmlns:svg="http://www.w3.org/2000/svg"
   xmlns="http://www.w3.org/2000/svg"
   xmlns:sodipodi="http://sodipodi.sourceforge.net/DTD/sodipodi-0.dtd"
   xmlns:inkscape="http://www.inkscape.org/namespaces/inkscape"
   width="210mm"
   height="297mm"
   viewBox="0 0 744.09448819 1052.3622047"
   id="svg4235"
   version="1.1"
   inkscape:version="0.91 r13725"
   inkscape:export-filename="/home/ed/Desktop/audioblast_logo.png"
   inkscape:export-xdpi="67.480003"
   inkscape:export-ydpi="67.480003"
   sodipodi:docname="audioblast_logo.svg">
  <defs
     id="defs4237" />
  <sodipodi:namedview
     id="base"
     pagecolor="#ffffff"
     bordercolor="#666666"
     borderopacity="1.0"
     inkscape:pageopacity="0.0"
     inkscape:pageshadow="2"
     inkscape:zoom="1.979899"
     inkscape:cx="352.16754"
     inkscape:cy="564.52673"
     inkscape:document-units="px"
     inkscape:current-layer="layer1"
     showgrid="false"
     inkscape:window-width="1879"
     inkscape:window-height="1056"
     inkscape:window-x="41"
     inkscape:window-y="24"
     inkscape:window-maximized="1" />
  <metadata
     id="metadata4240">
    <rdf:RDF>
      <cc:Work
         rdf:about="">
        <dc:format>image/svg+xml</dc:format>
        <dc:type
           rdf:resource="http://purl.org/dc/dcmitype/StillImage" />
        <dc:title></dc:title>
      </cc:Work>
    </rdf:RDF>
  </metadata>
  <g
     inkscape:label="Layer 1"
     inkscape:groupmode="layer"
     id="layer1">
    <path
       inkscape:connector-curvature="0"
       id="path58"
       style="fill:#ff6600;fill-opacity:1;fill-rule:nonzero;stroke:none"
       d="m 264.43912,367.70622 c 16.07375,0 18.6475,2.5275 18.6475,10.63375 0,9.5875 7.795,17.38625 17.3775,17.38625 9.58,0 17.3725,-7.79875 17.3725,-17.38625 l 0,-11.7775 c 0,-7.21625 5.86625,-13.09125 13.08,-13.09125 7.21125,0 13.08125,5.875 13.08125,13.09125 l 0,55.225 c 0,9.58375 7.79625,17.375 17.38,17.375 9.5825,0 17.37125,-7.79125 17.375,-17.37 l 0.38125,-0.005 -0.38125,0 0,-113.1875 c 0,-7.2175 5.87,-13.09125 13.0825,-13.09125 7.21375,0 13.08375,5.87375 13.08375,13.09125 l 0,69.74 c 0,9.5875 7.795,17.38625 17.37875,17.38625 9.57875,0 17.37125,-7.79875 17.37125,-17.38625 l 0.0937,0 c 0,-8.03875 2.56125,-10.54 18.55625,-10.54 255.67466,-4.63553 158.25633,-5.11741 5e-4,-4.48 -13.0525,0 -23.03625,1.1075 -23.03625,15.02 l 0.0937,0 c 0,7.22 -5.86625,13.09375 -13.07875,13.09375 -7.21625,0 -13.0875,-5.87375 -13.0875,-13.09375 l 0,-69.74 c 0,-9.5875 -7.79125,-17.3825 -17.375,-17.3825 -9.5825,0 -17.375,7.795 -17.375,17.3825 l 0,113.1875 -0.38125,0 0,0.0525 0.3775,-0.004 c -0.0263,7.19 -5.88125,13.03375 -13.07875,13.03375 -7.2175,0 -13.0875,-5.87 -13.0875,-13.0825 l 0,-55.225 c 0,-9.5875 -7.79125,-17.3825 -17.37375,-17.3825 -9.58,0 -17.3725,7.795 -17.3725,17.3825 l 0,11.7775 c 0,7.22 -5.86625,13.09375 -13.08,13.09375 -7.215,0 -13.085,-5.87375 -13.085,-13.09375 0,-12.62 -7.74521,-15.71152 -22.94,-14.9275 l -48.94367,2.52538 c 0,0 37.57734,1.76837 48.94367,1.76837 z"
       sodipodi:nodetypes="csssssssscccsssssccccccsssssccccsssssssssccc" />
    <text
       xml:space="preserve"
       style="font-style:normal;font-weight:normal;font-size:73.76264191px;line-height:125%;font-family:Sans;letter-spacing:0px;word-spacing:0px;fill:#000000;fill-opacity:1;stroke:none;stroke-width:1px;stroke-linecap:butt;stroke-linejoin:miter;stroke-opacity:1"
       x="230.47127"
       y="342.54501"
       id="text4794"
       sodipodi:linespacing="125%"><tspan
         sodipodi:role="line"
         id="tspan4796"
         x="230.47127"
         y="342.54501"
         style="font-size:50px">audio</tspan></text>
    <text
       xml:space="preserve"
       style="font-style:normal;font-weight:normal;font-size:53.06136322px;line-height:125%;font-family:Sans;letter-spacing:0px;word-spacing:0px;fill:#000000;fill-opacity:1;stroke:none;stroke-width:1px;stroke-linecap:butt;stroke-linejoin:miter;stroke-opacity:1"
       x="381.44235"
       y="437.19211"
       id="text4794-9"
       sodipodi:linespacing="125%"><tspan
         sodipodi:role="line"
         id="tspan4796-1"
         x="381.44235"
         y="437.19211">BLAST!</tspan></text>
  </g>
</svg>
